<svg xmlns="http://www.w3.org/2000/svg" xmlns:xlink="http://www.w3.org/1999/xlink" width="176.125" height="213.432" viewBox="0 0 176.125 213.432">
  <defs>
    <linearGradient id="linear-gradient" x1="0.449" y1="0.043" x2="0.484" y2="0.515" gradientUnits="objectBoundingBox">
      <stop offset="0" stop-color="#87ddd4"/>
      <stop offset="1" stop-color="#247abc"/>
    </linearGradient>
    <linearGradient id="linear-gradient-2" x1="0.537" y1="0.965" x2="0.497" y2="0.491" gradientUnits="objectBoundingBox">
      <stop offset="0" stop-color="#ffce00"/>
      <stop offset="1" stop-color="#ea5d00"/>
    </linearGradient>
    <linearGradient id="linear-gradient-3" y1="0.5" x2="1" y2="0.5" gradientUnits="objectBoundingBox">
      <stop offset="0" stop-color="#247abc"/>
      <stop offset="1" stop-color="#87ddd4"/>
      <stop offset="1" stop-color="#6c24a7"/>
    </linearGradient>
    <linearGradient id="linear-gradient-4" x1="1" y1="0.5" x2="0" y2="0.5" gradientUnits="objectBoundingBox">
      <stop offset="0" stop-color="#ea5d00"/>
      <stop offset="1" stop-color="#ffce00"/>
    </linearGradient>
    <linearGradient id="linear-gradient-5" x1="0.449" y1="0.043" x2="0.484" y2="0.515" xlink:href="#linear-gradient"/>
    <linearGradient id="linear-gradient-6" x1="0.537" y1="0.965" x2="0.497" y2="0.491" xlink:href="#linear-gradient-2"/>
    <linearGradient id="linear-gradient-13" x1="0.449" y1="0.043" x2="0.484" y2="0.515" xlink:href="#linear-gradient"/>
    <linearGradient id="linear-gradient-17" x1="0.449" y1="0.043" x2="0.484" y2="0.515" xlink:href="#linear-gradient"/>
    <linearGradient id="linear-gradient-21" x1="0.449" y1="0.043" x2="0.484" y2="0.515" xlink:href="#linear-gradient"/>
    <linearGradient id="linear-gradient-22" x1="0.537" y1="0.965" x2="0.497" y2="0.491" xlink:href="#linear-gradient-2"/>
    <linearGradient id="linear-gradient-25" x1="0.449" y1="0.043" x2="0.484" y2="0.515" xlink:href="#linear-gradient"/>
    <linearGradient id="linear-gradient-29" x1="0.449" y1="0.043" x2="0.484" y2="0.515" xlink:href="#linear-gradient"/>
  </defs>
  <g id="Group_10" data-name="Group 10" transform="translate(-2249.49 -3049.995)">
    <g id="Group_9" data-name="Group 9" transform="translate(2250.69 3049.995)">
      <g id="Group_4" data-name="Group 4" transform="translate(25.118 188.86)">
        <text id="GRAPE" transform="translate(0 19.571)" fill="#fca311" font-size="20" font-family="Calibri-Bold, Calibri" font-weight="700"><tspan x="0" y="0">GRAPE</tspan></text>
        <text id="STUDIO" transform="translate(70.812 19)" fill="#fca311" font-size="20" font-family="Calibri-Light, Calibri" font-weight="300"><tspan x="0" y="0">STUDIO</tspan></text>
      </g>
      <g id="Group_3" data-name="Group 3">
        <g id="Group_1" data-name="Group 1" transform="translate(0 0)">
          <line id="Line_1" data-name="Line 1" y1="50.578" fill="none" stroke="#fca311" stroke-miterlimit="22.926" stroke-width="2.4"/>
          <line id="Line_2" data-name="Line 2" x2="52.923" transform="translate(0.863 1.382)" fill="none" stroke="#fca311" stroke-miterlimit="22.926" stroke-width="2.4"/>
        </g>
        <g id="Group_2" data-name="Group 2" transform="translate(119.94 118.292)">
          <line id="Line_3" data-name="Line 3" y2="50.578" transform="translate(53.786)" fill="none" stroke="#fca311" stroke-miterlimit="22.926" stroke-width="2.4"/>
          <line id="Line_4" data-name="Line 4" x1="52.923" transform="translate(0 49.195)" fill="none" stroke="#fca311" stroke-miterlimit="22.926" stroke-width="2.4"/>
        </g>
      </g>
      <g id="Group_5" data-name="Group 5" transform="translate(45.036 29.275)">
        <path id="Path_1" data-name="Path 1" d="M538.445,834.653a2.475,2.475,0,0,1-.455-1.593v-2.223a5.315,5.315,0,0,0-.94-3.181,4.2,4.2,0,0,0-1.261-1.131,5.744,5.744,0,0,0-2.971-.78,4.282,4.282,0,0,0-3.8,2.241l-4.473,8.468h2.761l4.251-8.16a1.176,1.176,0,0,1,1.046-.621,1.858,1.858,0,0,1,1.727,1.127,5.418,5.418,0,0,1,.331,2.036v2.223a3.89,3.89,0,0,0,.524,2.021,1.388,1.388,0,1,1,0,2.748,3.883,3.883,0,0,0-.524,2.02v2.223a5.428,5.428,0,0,1-.331,2.037,1.858,1.858,0,0,1-1.727,1.127h-8.448l-.3.576a4.122,4.122,0,0,1-1.149,1.351h10.115a5.744,5.744,0,0,0,2.971-.779,4.2,4.2,0,0,0,1.261-1.132,5.315,5.315,0,0,0,.94-3.181v-2.223a2.474,2.474,0,0,1,.455-1.593,1.681,1.681,0,0,1,1.39-.564v-2.475A1.681,1.681,0,0,1,538.445,834.653Z" transform="translate(-512.019 -779.703)" fill-rule="evenodd" fill="url(#linear-gradient)"/>
        <path id="Path_2" data-name="Path 2" d="M515.178,838.256a2.468,2.468,0,0,1,.455,1.593v2.223a5.315,5.315,0,0,0,.94,3.181,4.215,4.215,0,0,0,1.261,1.132,5.744,5.744,0,0,0,2.971.779,4.283,4.283,0,0,0,3.8-2.241l4.473-8.467h-2.761l-4.251,8.159a1.177,1.177,0,0,1-1.046.622,1.858,1.858,0,0,1-1.727-1.127,5.427,5.427,0,0,1-.331-2.037v-2.223a3.871,3.871,0,0,0-.524-2.02,1.388,1.388,0,1,1,0-2.748,3.877,3.877,0,0,0,.524-2.021v-2.223a5.421,5.421,0,0,1,.331-2.036,1.858,1.858,0,0,1,1.727-1.127h2.4v-1.928H520.8a5.744,5.744,0,0,0-2.971.78,4.21,4.21,0,0,0-1.261,1.131,5.315,5.315,0,0,0-.94,3.181v2.223a2.468,2.468,0,0,1-.455,1.593,1.678,1.678,0,0,1-1.39.564v2.475a1.678,1.678,0,0,1,1.39.564Zm5.627,8.906Zm.213-1.927" transform="translate(-513.788 -779.703)" fill-rule="evenodd" fill="url(#linear-gradient-2)"/>
        <path id="Path_3" data-name="Path 3" d="M536.77,835.208a3.489,3.489,0,0,0-1.584,1.374,3.883,3.883,0,0,0-.524,2.02v2.223a5.428,5.428,0,0,1-.331,2.037,1.857,1.857,0,0,1-1.727,1.127h-8.448l-.3.576a4.121,4.121,0,0,1-1.149,1.351h10.115a5.743,5.743,0,0,0,2.971-.778,4.2,4.2,0,0,0,1.261-1.132,5.316,5.316,0,0,0,.94-3.181V838.6a2.475,2.475,0,0,1,.455-1.593,1.681,1.681,0,0,1,1.39-.564V833.97A26.837,26.837,0,0,0,536.77,835.208Z" transform="translate(-512.019 -778.456)" fill-rule="evenodd" fill="url(#linear-gradient-3)"/>
        <path id="Path_4" data-name="Path 4" d="M516.854,836.455a3.491,3.491,0,0,0,1.583-1.374,3.877,3.877,0,0,0,.524-2.021v-2.223a5.421,5.421,0,0,1,.331-2.036,1.858,1.858,0,0,1,1.727-1.127h8.448l.3-.577a4.147,4.147,0,0,1,1.149-1.351H520.8a5.744,5.744,0,0,0-2.971.78,4.2,4.2,0,0,0-1.261,1.131,5.315,5.315,0,0,0-.94,3.181v2.223a2.468,2.468,0,0,1-.455,1.593,1.678,1.678,0,0,1-1.39.564v2.475A26.881,26.881,0,0,0,516.854,836.455Z" transform="translate(-513.788 -779.703)" fill-rule="evenodd" fill="url(#linear-gradient-4)"/>
        <path id="Path_5" data-name="Path 5" d="M561.372,834.664a2.468,2.468,0,0,1-.457-1.593v-2.223a5.307,5.307,0,0,0-.94-3.181,4.186,4.186,0,0,0-1.261-1.132,5.739,5.739,0,0,0-2.97-.779,4.283,4.283,0,0,0-3.8,2.241l-4.473,8.467h2.76l4.252-8.159a1.174,1.174,0,0,1,1.046-.622,1.859,1.859,0,0,1,1.727,1.128,5.422,5.422,0,0,1,.33,2.036v2.223a3.87,3.87,0,0,0,.525,2.02,1.388,1.388,0,1,1,0,2.749,3.868,3.868,0,0,0-.525,2.02v2.223a5.426,5.426,0,0,1-.33,2.036,1.859,1.859,0,0,1-1.727,1.129h-8.448l-.3.576a4.145,4.145,0,0,1-1.149,1.351h10.115a5.739,5.739,0,0,0,2.97-.778,4.187,4.187,0,0,0,1.261-1.132,5.307,5.307,0,0,0,.94-3.181v-2.223a2.474,2.474,0,0,1,.457-1.594,1.681,1.681,0,0,1,1.39-.563v-2.475A1.679,1.679,0,0,1,561.372,834.664Z" transform="translate(-507.469 -779.701)" fill-rule="evenodd" fill="url(#linear-gradient-5)"/>
        <path id="Path_6" data-name="Path 6" d="M538.105,838.267a2.474,2.474,0,0,1,.457,1.594v2.223a5.308,5.308,0,0,0,.94,3.181,4.168,4.168,0,0,0,1.261,1.131,5.733,5.733,0,0,0,2.971.78,4.284,4.284,0,0,0,3.8-2.241L552,836.466h-2.76l-4.251,8.16a1.178,1.178,0,0,1-1.047.622,1.858,1.858,0,0,1-1.726-1.129,5.42,5.42,0,0,1-.331-2.036v-2.223a3.878,3.878,0,0,0-.524-2.02,1.388,1.388,0,1,1,0-2.749,3.881,3.881,0,0,0,.524-2.02v-2.223a5.421,5.421,0,0,1,.331-2.036,1.858,1.858,0,0,1,1.726-1.128h2.4v-1.927h-2.615a5.743,5.743,0,0,0-2.971.779,4.187,4.187,0,0,0-1.261,1.132,5.308,5.308,0,0,0-.94,3.181v2.223a2.468,2.468,0,0,1-.457,1.593,1.678,1.678,0,0,1-1.39.564V837.7a1.681,1.681,0,0,1,1.39.563Zm5.628,8.908Zm.212-1.927" transform="translate(-509.238 -779.701)" fill-rule="evenodd" fill="url(#linear-gradient-6)"/>
        <path id="Path_7" data-name="Path 7" d="M559.7,835.219a3.485,3.485,0,0,0-1.583,1.375,3.868,3.868,0,0,0-.525,2.02v2.223a5.426,5.426,0,0,1-.33,2.036A1.859,1.859,0,0,1,555.533,844h-8.448l-.3.576a4.144,4.144,0,0,1-1.149,1.351h10.115a5.732,5.732,0,0,0,2.971-.78,4.192,4.192,0,0,0,1.26-1.131,5.307,5.307,0,0,0,.94-3.181v-2.223a2.474,2.474,0,0,1,.457-1.594,1.681,1.681,0,0,1,1.39-.563v-2.475A26.849,26.849,0,0,0,559.7,835.219Z" transform="translate(-507.469 -778.454)" fill-rule="evenodd" fill="url(#linear-gradient-3)"/>
        <path id="Path_8" data-name="Path 8" d="M539.781,836.466a3.488,3.488,0,0,0,1.584-1.374,3.881,3.881,0,0,0,.524-2.02v-2.223a5.421,5.421,0,0,1,.331-2.036,1.858,1.858,0,0,1,1.726-1.128h8.449l.3-.576a4.1,4.1,0,0,1,1.149-1.351H543.732a5.742,5.742,0,0,0-2.97.779,4.2,4.2,0,0,0-1.261,1.132,5.308,5.308,0,0,0-.94,3.181v2.223a2.468,2.468,0,0,1-.457,1.593,1.678,1.678,0,0,1-1.39.564V837.7A26.786,26.786,0,0,0,539.781,836.466Z" transform="translate(-509.238 -779.701)" fill-rule="evenodd" fill="url(#linear-gradient-4)"/>
        <path id="Path_9" data-name="Path 9" d="M585.036,834.842a2.475,2.475,0,0,1-.455-1.593v-2.223a5.308,5.308,0,0,0-.941-3.181,4.2,4.2,0,0,0-1.26-1.132,5.743,5.743,0,0,0-2.971-.779,4.283,4.283,0,0,0-3.8,2.241l-4.473,8.466H573.9l4.251-8.159a1.176,1.176,0,0,1,1.046-.622,1.859,1.859,0,0,1,1.727,1.127,5.43,5.43,0,0,1,.331,2.037v2.223a3.882,3.882,0,0,0,.524,2.02,1.388,1.388,0,1,1,0,2.749,3.879,3.879,0,0,0-.524,2.02v2.223a5.423,5.423,0,0,1-.331,2.036,1.858,1.858,0,0,1-1.727,1.127h-8.448l-.3.577a4.145,4.145,0,0,1-1.149,1.351h10.115a5.743,5.743,0,0,0,2.971-.778,4.2,4.2,0,0,0,1.26-1.132,5.308,5.308,0,0,0,.941-3.181v-2.223a2.48,2.48,0,0,1,.455-1.594,1.684,1.684,0,0,1,1.39-.563v-2.475A1.682,1.682,0,0,1,585.036,834.842Z" transform="translate(-502.773 -779.674)" fill-rule="evenodd" fill="url(#linear-gradient-5)"/>
        <path id="Path_10" data-name="Path 10" d="M561.769,838.444a2.481,2.481,0,0,1,.455,1.594v2.223a5.307,5.307,0,0,0,.94,3.181,4.183,4.183,0,0,0,1.261,1.131,5.733,5.733,0,0,0,2.971.78,4.285,4.285,0,0,0,3.8-2.241l4.473-8.468h-2.761l-4.251,8.16a1.179,1.179,0,0,1-1.047.621,1.857,1.857,0,0,1-1.726-1.127,5.422,5.422,0,0,1-.331-2.036v-2.223a3.878,3.878,0,0,0-.524-2.02,1.388,1.388,0,1,1,0-2.749,3.881,3.881,0,0,0,.524-2.02v-2.223a5.428,5.428,0,0,1,.331-2.037,1.859,1.859,0,0,1,1.726-1.127h2.4v-1.927H567.4a5.743,5.743,0,0,0-2.971.779,4.2,4.2,0,0,0-1.261,1.132,5.307,5.307,0,0,0-.94,3.181v2.223a2.475,2.475,0,0,1-.455,1.593,1.681,1.681,0,0,1-1.39.564v2.475a1.684,1.684,0,0,1,1.39.563Zm5.627,8.908Zm.212-1.928" transform="translate(-504.543 -779.674)" fill-rule="evenodd" fill="url(#linear-gradient-2)"/>
        <path id="Path_11" data-name="Path 11" d="M583.36,835.4a3.487,3.487,0,0,0-1.583,1.375,3.88,3.88,0,0,0-.524,2.02v2.223a5.424,5.424,0,0,1-.331,2.036,1.858,1.858,0,0,1-1.727,1.127h-8.448l-.3.577a4.146,4.146,0,0,1-1.149,1.351h10.115a5.733,5.733,0,0,0,2.971-.78,4.192,4.192,0,0,0,1.26-1.131,5.308,5.308,0,0,0,.941-3.18v-2.223a2.481,2.481,0,0,1,.455-1.594,1.685,1.685,0,0,1,1.39-.563v-2.475A26.87,26.87,0,0,0,583.36,835.4Z" transform="translate(-502.773 -778.428)" fill-rule="evenodd" fill="url(#linear-gradient-3)"/>
        <path id="Path_12" data-name="Path 12" d="M563.443,836.643a3.487,3.487,0,0,0,1.584-1.374,3.881,3.881,0,0,0,.524-2.02v-2.223a5.428,5.428,0,0,1,.331-2.037,1.859,1.859,0,0,1,1.726-1.127h8.449l.3-.576a4.132,4.132,0,0,1,1.149-1.351H567.4a5.743,5.743,0,0,0-2.971.779,4.2,4.2,0,0,0-1.261,1.132,5.307,5.307,0,0,0-.94,3.181v2.223a2.475,2.475,0,0,1-.455,1.593,1.681,1.681,0,0,1-1.39.564v2.475A26.819,26.819,0,0,0,563.443,836.643Z" transform="translate(-504.543 -779.674)" fill-rule="evenodd" fill="url(#linear-gradient-4)"/>
        <path id="Path_13" data-name="Path 13" d="M551.114,853.387a2.47,2.47,0,0,1-.457-1.593V849.57a5.307,5.307,0,0,0-.94-3.181,4.186,4.186,0,0,0-1.261-1.131,5.745,5.745,0,0,0-2.971-.78,4.284,4.284,0,0,0-3.8,2.241l-4.473,8.468h2.761l4.251-8.16a1.179,1.179,0,0,1,1.047-.621A1.859,1.859,0,0,1,547,847.534a5.449,5.449,0,0,1,.33,2.036v2.224a3.884,3.884,0,0,0,.524,2.02,1.388,1.388,0,1,1,0,2.748,3.881,3.881,0,0,0-.524,2.02V860.8a5.456,5.456,0,0,1-.33,2.037,1.859,1.859,0,0,1-1.727,1.127h-8.449l-.3.577a4.111,4.111,0,0,1-1.148,1.35h10.114a5.744,5.744,0,0,0,2.971-.778,4.19,4.19,0,0,0,1.261-1.132,5.3,5.3,0,0,0,.94-3.181v-2.223a2.468,2.468,0,0,1,.457-1.593,1.678,1.678,0,0,1,1.39-.564V853.95A1.681,1.681,0,0,1,551.114,853.387Z" transform="translate(-509.505 -776.863)" fill-rule="evenodd" fill="url(#linear-gradient-13)"/>
        <path id="Path_14" data-name="Path 14" d="M527.846,856.989a2.469,2.469,0,0,1,.455,1.593V860.8a5.305,5.305,0,0,0,.941,3.181,4.188,4.188,0,0,0,1.261,1.132,5.743,5.743,0,0,0,2.971.778,4.285,4.285,0,0,0,3.8-2.241l4.471-8.466h-2.761l-4.251,8.159a1.175,1.175,0,0,1-1.046.622,1.858,1.858,0,0,1-1.727-1.127,5.433,5.433,0,0,1-.329-2.037v-2.223a3.881,3.881,0,0,0-.524-2.02,1.388,1.388,0,1,1,0-2.748,3.884,3.884,0,0,0,.524-2.02V849.57a5.426,5.426,0,0,1,.329-2.036,1.858,1.858,0,0,1,1.727-1.127h2.4v-1.928h-2.615a5.745,5.745,0,0,0-2.971.78,4.185,4.185,0,0,0-1.261,1.131,5.308,5.308,0,0,0-.941,3.181v2.224a2.47,2.47,0,0,1-.455,1.593,1.681,1.681,0,0,1-1.39.563v2.475a1.679,1.679,0,0,1,1.39.564Zm5.628,8.906Zm.212-1.927" transform="translate(-511.274 -776.863)" fill-rule="evenodd" fill="url(#linear-gradient-6)"/>
        <path id="Path_15" data-name="Path 15" d="M549.438,853.941a3.494,3.494,0,0,0-1.584,1.374,3.881,3.881,0,0,0-.524,2.02v2.223a5.456,5.456,0,0,1-.33,2.037,1.859,1.859,0,0,1-1.727,1.127h-8.449l-.3.577a4.111,4.111,0,0,1-1.148,1.35h10.114a5.74,5.74,0,0,0,2.971-.778,4.188,4.188,0,0,0,1.261-1.132,5.3,5.3,0,0,0,.94-3.181v-2.223a2.468,2.468,0,0,1,.457-1.593,1.678,1.678,0,0,1,1.39-.564V852.7A26.792,26.792,0,0,0,549.438,853.941Z" transform="translate(-509.505 -775.616)" fill-rule="evenodd" fill="url(#linear-gradient-3)"/>
        <path id="Path_16" data-name="Path 16" d="M529.521,855.188a3.5,3.5,0,0,0,1.584-1.374,3.884,3.884,0,0,0,.524-2.02V849.57a5.426,5.426,0,0,1,.329-2.036,1.858,1.858,0,0,1,1.727-1.127h8.448l.3-.577a4.146,4.146,0,0,1,1.149-1.351H533.473a5.744,5.744,0,0,0-2.97.78,4.185,4.185,0,0,0-1.261,1.131,5.308,5.308,0,0,0-.941,3.181v2.224a2.47,2.47,0,0,1-.455,1.593,1.681,1.681,0,0,1-1.39.563v2.475A26.877,26.877,0,0,0,529.521,855.188Z" transform="translate(-511.274 -776.863)" fill-rule="evenodd" fill="url(#linear-gradient-4)"/>
        <path id="Path_17" data-name="Path 17" d="M574.125,853.387a2.477,2.477,0,0,1-.455-1.593V849.57a5.308,5.308,0,0,0-.941-3.181,4.194,4.194,0,0,0-1.26-1.131,5.749,5.749,0,0,0-2.971-.78,4.283,4.283,0,0,0-3.8,2.241l-4.473,8.468h2.761l4.251-8.16a1.177,1.177,0,0,1,1.046-.621,1.858,1.858,0,0,1,1.727,1.127,5.423,5.423,0,0,1,.331,2.036v2.224a3.873,3.873,0,0,0,.524,2.02,1.388,1.388,0,1,1,0,2.748,3.87,3.87,0,0,0-.524,2.02V860.8a5.429,5.429,0,0,1-.331,2.037,1.857,1.857,0,0,1-1.727,1.127h-8.448l-.3.577a4.128,4.128,0,0,1-1.149,1.35H568.5a5.739,5.739,0,0,0,2.97-.778,4.187,4.187,0,0,0,1.261-1.132,5.305,5.305,0,0,0,.941-3.181v-2.223a2.475,2.475,0,0,1,.455-1.593,1.678,1.678,0,0,1,1.39-.564V853.95A1.681,1.681,0,0,1,574.125,853.387Z" transform="translate(-504.938 -776.863)" fill-rule="evenodd" fill="url(#linear-gradient-17)"/>
        <path id="Path_18" data-name="Path 18" d="M550.859,856.989a2.474,2.474,0,0,1,.455,1.593V860.8a5.313,5.313,0,0,0,.94,3.181,4.2,4.2,0,0,0,1.261,1.132,5.744,5.744,0,0,0,2.971.778,4.282,4.282,0,0,0,3.8-2.241l4.473-8.466H562l-4.251,8.159a1.178,1.178,0,0,1-1.048.622,1.857,1.857,0,0,1-1.726-1.127,5.432,5.432,0,0,1-.331-2.037v-2.223a3.882,3.882,0,0,0-.524-2.02,1.388,1.388,0,1,1,0-2.748,3.885,3.885,0,0,0,.524-2.02V849.57a5.425,5.425,0,0,1,.331-2.036,1.857,1.857,0,0,1,1.726-1.127h2.4v-1.928h-2.615a5.745,5.745,0,0,0-2.971.78,4.2,4.2,0,0,0-1.261,1.131,5.315,5.315,0,0,0-.94,3.181v2.224a2.476,2.476,0,0,1-.455,1.593,1.684,1.684,0,0,1-1.39.563v2.475a1.681,1.681,0,0,1,1.39.564Zm5.627,8.906Zm.212-1.927" transform="translate(-506.707 -776.863)" fill-rule="evenodd" fill="url(#linear-gradient-2)"/>
        <path id="Path_19" data-name="Path 19" d="M572.45,853.941a3.49,3.49,0,0,0-1.583,1.374,3.87,3.87,0,0,0-.524,2.02v2.223a5.429,5.429,0,0,1-.331,2.037,1.858,1.858,0,0,1-1.727,1.127h-8.448l-.3.577a4.129,4.129,0,0,1-1.149,1.35H568.5a5.744,5.744,0,0,0,2.971-.778,4.2,4.2,0,0,0,1.26-1.132,5.305,5.305,0,0,0,.941-3.181v-2.223a2.475,2.475,0,0,1,.455-1.593,1.678,1.678,0,0,1,1.39-.564V852.7A26.8,26.8,0,0,0,572.45,853.941Z" transform="translate(-504.938 -775.616)" fill-rule="evenodd" fill="url(#linear-gradient-3)"/>
        <path id="Path_20" data-name="Path 20" d="M552.533,855.188a3.489,3.489,0,0,0,1.584-1.374,3.885,3.885,0,0,0,.524-2.02V849.57a5.425,5.425,0,0,1,.331-2.036,1.857,1.857,0,0,1,1.726-1.127h8.449l.3-.577a4.133,4.133,0,0,1,1.149-1.351H556.486a5.745,5.745,0,0,0-2.971.78,4.2,4.2,0,0,0-1.261,1.131,5.315,5.315,0,0,0-.94,3.181v2.224a2.476,2.476,0,0,1-.455,1.593,1.684,1.684,0,0,1-1.39.563v2.475A26.924,26.924,0,0,0,552.533,855.188Z" transform="translate(-506.707 -776.863)" fill-rule="evenodd" fill="url(#linear-gradient-4)"/>
        <path id="Path_21" data-name="Path 21" d="M562.053,871.872a2.468,2.468,0,0,1-.455-1.593v-2.223a5.3,5.3,0,0,0-.941-3.181,4.168,4.168,0,0,0-1.261-1.132,5.74,5.74,0,0,0-2.971-.778,4.285,4.285,0,0,0-3.8,2.241l-4.471,8.466h2.761l4.251-8.16a1.176,1.176,0,0,1,1.046-.621,1.858,1.858,0,0,1,1.727,1.127,5.434,5.434,0,0,1,.329,2.037v2.223a3.871,3.871,0,0,0,.525,2.02,1.388,1.388,0,1,1,0,2.748,3.875,3.875,0,0,0-.525,2.021v2.223a5.427,5.427,0,0,1-.329,2.036,1.858,1.858,0,0,1-1.727,1.127h-8.448l-.3.577a4.128,4.128,0,0,1-1.149,1.35h10.114a5.743,5.743,0,0,0,2.971-.778,4.182,4.182,0,0,0,1.261-1.131,5.308,5.308,0,0,0,.941-3.181v-2.223a2.473,2.473,0,0,1,.455-1.594,1.681,1.681,0,0,1,1.39-.563v-2.475A1.678,1.678,0,0,1,562.053,871.872Z" transform="translate(-507.334 -774.061)" fill-rule="evenodd" fill="url(#linear-gradient-21)"/>
        <path id="Path_22" data-name="Path 22" d="M538.787,875.474a2.48,2.48,0,0,1,.455,1.594v2.223a5.308,5.308,0,0,0,.94,3.181,4.2,4.2,0,0,0,1.261,1.131,5.744,5.744,0,0,0,2.971.778,4.284,4.284,0,0,0,3.8-2.241l4.473-8.467h-2.761l-4.251,8.16a1.176,1.176,0,0,1-1.047.621,1.86,1.86,0,0,1-1.727-1.127,5.45,5.45,0,0,1-.329-2.036v-2.223a3.886,3.886,0,0,0-.524-2.021,1.388,1.388,0,1,1,0-2.748,3.882,3.882,0,0,0,.524-2.02v-2.223a5.458,5.458,0,0,1,.329-2.037,1.86,1.86,0,0,1,1.727-1.127h2.4v-1.927h-2.615a5.743,5.743,0,0,0-2.971.778,4.184,4.184,0,0,0-1.261,1.132,5.3,5.3,0,0,0-.94,3.181v2.223a2.475,2.475,0,0,1-.455,1.593,1.683,1.683,0,0,1-1.391.564v2.475a1.685,1.685,0,0,1,1.391.563Zm5.627,8.906Zm.212-1.927" transform="translate(-509.103 -774.061)" fill-rule="evenodd" fill="url(#linear-gradient-22)"/>
        <path id="Path_23" data-name="Path 23" d="M560.378,872.426a3.484,3.484,0,0,0-1.583,1.374,3.874,3.874,0,0,0-.525,2.021v2.223a5.428,5.428,0,0,1-.329,2.036,1.858,1.858,0,0,1-1.727,1.127h-8.448l-.3.577a4.128,4.128,0,0,1-1.149,1.35h10.115a5.747,5.747,0,0,0,2.971-.778,4.19,4.19,0,0,0,1.259-1.131,5.307,5.307,0,0,0,.941-3.181v-2.223a2.473,2.473,0,0,1,.455-1.594,1.681,1.681,0,0,1,1.39-.563v-2.475A26.873,26.873,0,0,0,560.378,872.426Z" transform="translate(-507.334 -772.814)" fill-rule="evenodd" fill="url(#linear-gradient-3)"/>
        <path id="Path_24" data-name="Path 24" d="M540.461,873.673a3.486,3.486,0,0,0,1.584-1.374,3.882,3.882,0,0,0,.524-2.02v-2.223a5.458,5.458,0,0,1,.329-2.037,1.86,1.86,0,0,1,1.727-1.127h8.449l.3-.576a4.092,4.092,0,0,1,1.149-1.351H544.414a5.743,5.743,0,0,0-2.971.778,4.17,4.17,0,0,0-1.261,1.132,5.3,5.3,0,0,0-.94,3.181v2.223a2.475,2.475,0,0,1-.455,1.593,1.683,1.683,0,0,1-1.391.564v2.475A26.767,26.767,0,0,0,540.461,873.673Z" transform="translate(-509.103 -774.061)" fill-rule="evenodd" fill="url(#linear-gradient-4)"/>
        <path id="Path_25" data-name="Path 25" d="M550.2,815.754a2.481,2.481,0,0,1-.455-1.594v-2.223a5.307,5.307,0,0,0-.941-3.181,4.194,4.194,0,0,0-1.26-1.132,5.746,5.746,0,0,0-2.971-.778,4.286,4.286,0,0,0-3.8,2.241l-4.471,8.466h2.761l4.251-8.159a1.174,1.174,0,0,1,1.046-.621,1.856,1.856,0,0,1,1.727,1.127,5.42,5.42,0,0,1,.331,2.036v2.223a3.869,3.869,0,0,0,.524,2.02,1.388,1.388,0,1,1,0,2.749,3.869,3.869,0,0,0-.524,2.02v2.223a5.425,5.425,0,0,1-.331,2.036,1.859,1.859,0,0,1-1.727,1.129h-8.449l-.3.576a4.145,4.145,0,0,1-1.149,1.351h10.115a5.74,5.74,0,0,0,2.97-.778,4.185,4.185,0,0,0,1.261-1.132,5.308,5.308,0,0,0,.941-3.181v-2.223a2.48,2.48,0,0,1,.455-1.594,1.681,1.681,0,0,1,1.39-.563v-2.475A1.681,1.681,0,0,1,550.2,815.754Z" transform="translate(-509.686 -782.568)" fill-rule="evenodd" fill="url(#linear-gradient-25)"/>
        <path id="Path_26" data-name="Path 26" d="M526.933,819.355a2.473,2.473,0,0,1,.457,1.594v2.223a5.307,5.307,0,0,0,.94,3.181,4.184,4.184,0,0,0,1.261,1.131,5.734,5.734,0,0,0,2.971.78,4.283,4.283,0,0,0,3.8-2.241l4.473-8.468h-2.761l-4.251,8.16a1.177,1.177,0,0,1-1.046.622,1.859,1.859,0,0,1-1.727-1.129,5.42,5.42,0,0,1-.331-2.036v-2.223a3.881,3.881,0,0,0-.524-2.02,1.388,1.388,0,1,1,0-2.749,3.881,3.881,0,0,0,.524-2.02v-2.223a5.42,5.42,0,0,1,.331-2.036,1.856,1.856,0,0,1,1.727-1.127h2.4v-1.928h-2.615a5.743,5.743,0,0,0-2.971.778,4.2,4.2,0,0,0-1.261,1.132,5.307,5.307,0,0,0-.94,3.181v2.223a2.474,2.474,0,0,1-.457,1.594,1.681,1.681,0,0,1-1.39.563v2.475a1.681,1.681,0,0,1,1.39.563Zm5.628,8.908Zm.213-1.927" transform="translate(-511.455 -782.568)" fill-rule="evenodd" fill="url(#linear-gradient-2)"/>
        <path id="Path_27" data-name="Path 27" d="M548.525,816.307a3.493,3.493,0,0,0-1.583,1.375,3.869,3.869,0,0,0-.524,2.02v2.223a5.424,5.424,0,0,1-.331,2.036,1.859,1.859,0,0,1-1.727,1.129h-8.449l-.3.576a4.145,4.145,0,0,1-1.149,1.351h10.115a5.737,5.737,0,0,0,2.971-.78,4.176,4.176,0,0,0,1.26-1.131,5.308,5.308,0,0,0,.941-3.181V819.7a2.48,2.48,0,0,1,.455-1.594,1.681,1.681,0,0,1,1.39-.563V815.07A26.885,26.885,0,0,0,548.525,816.307Z" transform="translate(-509.686 -781.321)" fill-rule="evenodd" fill="url(#linear-gradient-3)"/>
        <path id="Path_28" data-name="Path 28" d="M528.609,817.553a3.486,3.486,0,0,0,1.584-1.374,3.881,3.881,0,0,0,.524-2.02v-2.223a5.42,5.42,0,0,1,.331-2.036,1.856,1.856,0,0,1,1.727-1.127h8.448l.3-.577a4.113,4.113,0,0,1,1.149-1.351H532.561a5.743,5.743,0,0,0-2.971.778,4.218,4.218,0,0,0-1.261,1.132,5.307,5.307,0,0,0-.94,3.181v2.223a2.474,2.474,0,0,1-.457,1.594,1.681,1.681,0,0,1-1.39.563v2.475A26.782,26.782,0,0,0,528.609,817.553Z" transform="translate(-511.455 -782.568)" fill-rule="evenodd" fill="url(#linear-gradient-4)"/>
        <path id="Path_29" data-name="Path 29" d="M573.391,815.754a2.474,2.474,0,0,1-.457-1.594v-2.223a5.307,5.307,0,0,0-.94-3.181,4.186,4.186,0,0,0-1.261-1.132,5.743,5.743,0,0,0-2.971-.778,4.285,4.285,0,0,0-3.8,2.241l-4.473,8.466h2.761l4.251-8.159a1.177,1.177,0,0,1,1.047-.621,1.856,1.856,0,0,1,1.727,1.127,5.444,5.444,0,0,1,.33,2.036v2.223a3.881,3.881,0,0,0,.524,2.02,1.388,1.388,0,1,1,0,2.749,3.881,3.881,0,0,0-.524,2.02v2.223a5.449,5.449,0,0,1-.33,2.036,1.859,1.859,0,0,1-1.727,1.129H559.1l-.3.576a4.127,4.127,0,0,1-1.148,1.351h10.114a5.743,5.743,0,0,0,2.971-.778A4.187,4.187,0,0,0,572,826.352a5.307,5.307,0,0,0,.94-3.181v-2.223a2.473,2.473,0,0,1,.457-1.594,1.681,1.681,0,0,1,1.39-.563v-2.475A1.681,1.681,0,0,1,573.391,815.754Z" transform="translate(-505.084 -782.568)" fill-rule="evenodd" fill="url(#linear-gradient-29)"/>
        <path id="Path_30" data-name="Path 30" d="M550.124,819.355a2.473,2.473,0,0,1,.455,1.594v2.223a5.307,5.307,0,0,0,.941,3.181,4.166,4.166,0,0,0,1.261,1.131,5.734,5.734,0,0,0,2.971.78,4.284,4.284,0,0,0,3.8-2.241l4.471-8.468h-2.761l-4.251,8.16a1.175,1.175,0,0,1-1.046.622,1.86,1.86,0,0,1-1.727-1.129,5.447,5.447,0,0,1-.33-2.036v-2.223a3.881,3.881,0,0,0-.524-2.02,1.388,1.388,0,1,1,0-2.749,3.881,3.881,0,0,0,.524-2.02v-2.223a5.447,5.447,0,0,1,.33-2.036,1.857,1.857,0,0,1,1.727-1.127h2.4v-1.928h-2.615a5.743,5.743,0,0,0-2.971.778,4.183,4.183,0,0,0-1.261,1.132,5.307,5.307,0,0,0-.941,3.181v2.223a2.474,2.474,0,0,1-.455,1.594,1.681,1.681,0,0,1-1.39.563v2.475a1.681,1.681,0,0,1,1.39.563Zm5.628,8.908Zm.212-1.927" transform="translate(-506.853 -782.568)" fill-rule="evenodd" fill="url(#linear-gradient-6)"/>
        <path id="Path_31" data-name="Path 31" d="M571.716,816.307a3.5,3.5,0,0,0-1.584,1.375,3.881,3.881,0,0,0-.524,2.02v2.223a5.448,5.448,0,0,1-.33,2.036,1.859,1.859,0,0,1-1.727,1.129H559.1l-.3.576a4.127,4.127,0,0,1-1.148,1.351h10.114a5.731,5.731,0,0,0,2.971-.78A4.169,4.169,0,0,0,572,825.105a5.308,5.308,0,0,0,.94-3.181V819.7a2.473,2.473,0,0,1,.457-1.594,1.681,1.681,0,0,1,1.39-.563V815.07A26.888,26.888,0,0,0,571.716,816.307Z" transform="translate(-505.084 -781.321)" fill-rule="evenodd" fill="url(#linear-gradient-3)"/>
        <path id="Path_32" data-name="Path 32" d="M551.8,817.553a3.493,3.493,0,0,0,1.584-1.374,3.881,3.881,0,0,0,.524-2.02v-2.223a5.447,5.447,0,0,1,.33-2.036,1.857,1.857,0,0,1,1.727-1.127h8.449l.3-.577a4.128,4.128,0,0,1,1.148-1.351H555.751a5.742,5.742,0,0,0-2.97.778,4.2,4.2,0,0,0-1.261,1.132,5.307,5.307,0,0,0-.941,3.181v2.223a2.474,2.474,0,0,1-.455,1.594,1.681,1.681,0,0,1-1.39.563v2.475A26.787,26.787,0,0,0,551.8,817.553Z" transform="translate(-506.853 -782.568)" fill-rule="evenodd" fill="url(#linear-gradient-4)"/>
        <path id="Path_33" data-name="Path 33" d="M568.182,808.394c.284-.261.127-.185.243-.388a20.269,20.269,0,0,1-1.134-3.145,15.754,15.754,0,0,0-1.486-2.673c1.768,1.638,4.547,3.23,7,1.814a24.538,24.538,0,0,0,2.863-2.141c1.161-.908,2.046-1.239,3.182-2.013a24.693,24.693,0,0,1-2.311-2.031c-.615-.679-1.345-1.841-1.922-2.643-2.073-2.879-3.268-1.694-6.835-1.222.784-.717,1.971-1.078,2.627-1.826.521-.594,1.384-2.029,1.84-2.667l-4.171-2.271c-2.205-.775-3.492-.063-5.47.2.465-.619,1.334-1.084,1.638-1.547-3.923-.325-7.176.382-9.112,3.227-1.609,2.365-1.232,3.608-.889,6.063a58.384,58.384,0,0,0-9.481-.632l1,2.284a26.846,26.846,0,0,1,8.418.1c-1.022,2.112-2.822,4.123-.9,6.984a9.79,9.79,0,0,0,6.07,3.579l-.4-1.769C561.05,807.891,564,808.454,568.182,808.394Z" transform="translate(-507.641 -785.764)" fill="#009845" fill-rule="evenodd"/>
        <path id="Path_34" data-name="Path 34" d="M540.484,790.821l2.661-1.633s6.245,5.149,7.858,18.246l-2.6.32S546.325,796.3,540.484,790.821Z" transform="translate(-508.49 -785.245)" fill="#009845" fill-rule="evenodd"/>
      </g>
    </g>
  </g>
</svg>
